<?xml version="1.0" encoding="iso-8859-1"?>
<!-- Uploaded to: SVG Repo, www.svgrepo.com, Generator: SVG Repo Mixer Tools -->
<svg height="800px" width="800px" version="1.1" id="Capa_1" xmlns="http://www.w3.org/2000/svg" xmlns:xlink="http://www.w3.org/1999/xlink" 
	 viewBox="0 0 17.455 17.455" xml:space="preserve">
<g>
	<g>
		<path style="fill:#030104;" d="M17.331,11.492L14.8,4.669c-0.023-0.096-0.065-0.185-0.117-0.269V4.344l-0.011-0.068h-0.036
			c-0.125-0.698-0.563-1.281-1.165-1.611c-0.008-0.804-0.661-1.452-1.468-1.452c-0.812,0-1.47,0.659-1.47,1.47
			c0,0.097,0.011,0.191,0.028,0.282c-0.502,0.334-0.894,0.786-0.988,1.302L8.138,4.261C8.047,3.772,7.685,3.342,7.217,3.013
			c0.025-0.106,0.042-0.217,0.042-0.33c0-0.812-0.658-1.47-1.47-1.47c-0.793,0-1.434,0.63-1.465,1.415
			c-0.66,0.329-1.142,0.96-1.254,1.718C2.995,4.443,2.934,4.549,2.905,4.669l-2.781,6.823C0.041,11.787,0,12.079,0,12.365
			c0,2.104,2.122,3.878,4.635,3.878c1.738,0,3.291-0.85,4.083-2.069c0.778,1.229,2.322,2.069,4.099,2.069
			c2.557,0,4.638-1.739,4.638-3.878C17.453,12.079,17.412,11.787,17.331,11.492z M4.507,15.249c-1.741,0-3.153-1.41-3.153-3.153
			c0-1.741,1.412-3.15,3.153-3.15s3.154,1.409,3.154,3.15C7.661,13.839,6.249,15.249,4.507,15.249z M8.727,10.406
			c-0.676,0-1.22-0.546-1.22-1.222c0-0.675,0.544-1.222,1.22-1.222s1.222,0.547,1.222,1.222C9.949,9.86,9.403,10.406,8.727,10.406z
			 M13.099,15.249c-1.741,0-3.151-1.41-3.151-3.153c0-1.741,1.41-3.15,3.151-3.15c1.742,0,3.154,1.409,3.154,3.15
			C16.253,13.839,14.841,15.249,13.099,15.249z"/>
		<path style="fill:#030104;" d="M4.391,14.107c-1.117,0-2.024-0.906-2.024-2.023c0-0.057,0.003-0.111,0.009-0.167
			c-0.11,0.247-0.168,0.521-0.168,0.81c0,1.117,0.904,2.023,2.023,2.023c1.061,0,1.931-0.817,2.016-1.857
			C5.932,13.607,5.22,14.107,4.391,14.107z"/>
		<path style="fill:#030104;" d="M14.369,13.774c-0.919,0.631-2.182,0.396-2.813-0.525c-0.029-0.047-0.06-0.094-0.087-0.143
			c0.053,0.266,0.157,0.526,0.32,0.763c0.63,0.923,1.891,1.159,2.813,0.526c0.876-0.6,1.13-1.767,0.61-2.671
			C15.359,12.489,15.054,13.304,14.369,13.774z"/>
	</g>
</g>
</svg>